<?xml version="1.0" encoding="UTF-8"?><svg id="Livello_1" xmlns="http://www.w3.org/2000/svg" viewBox="0 0 2000 2000"><defs><style>.cls-1{fill:#fff;stroke-width:0px;}</style></defs><path class="cls-1" d="M931.4312,1126.0762c-2.2163,0-4.3345-1.2705-5.311-3.4199-1.3311-2.9316-.0347-6.3867,2.897-7.7188,69.3931-31.5205,103.1763-109.7686,78.5835-182.0117-1.0371-3.0474.5928-6.3594,3.6396-7.397,3.0488-1.0347,6.3584.5923,7.3975,3.6401,13.0537,38.3472,11.1582,79.665-5.3379,116.3438-16.0171,35.6143-44.2373,64.04-79.4614,80.04-.7817.3545-1.6011.5234-2.4072.5234Z"/><path class="cls-1" d="M807.0415,1127.2119c-.7715,0-1.5557-.1543-2.3091-.4795-35.9668-15.5391-64.915-43.8857-81.5122-79.8174-17.0728-36.9629-19.2529-78.6997-6.1387-117.5225,1.0308-3.0498,4.3384-4.689,7.3887-3.6572,3.0498,1.0308,4.6875,4.3384,3.6572,7.3887-24.4331,72.3291,11.2471,152.6709,81.229,182.9053,2.9556,1.2773,4.3159,4.708,3.0391,7.6631-.9512,2.2021-3.0986,3.5195-5.354,3.5195Z"/><path class="cls-1" d="M930.1585,760.4437c-23.0941-67.7693-40.7755-130.1697-56.5991-190.718,2.5718,49.6927,22.1553,428.0756,22.1553,428.0756.5173,39.03-55.2784,42.1152-58.8917,3.0477-.0524-1.0134-.0488-2.0552,0-3.0477,0,0,19.4705-376.1995,22.1105-427.2095-15.7707,61.9373-32.9387,124.9755-52.9398,188.1032l-58.585,173.0145c-27.864,82.4848,33.4606,168.0013,120.4925,168.0013h.5245c86.9155-.2917,147.9484-85.8079,119.9094-168.1763l-58.1766-171.0907ZM829.2051,1065.9629c-.666,1.542-2.1694,2.4639-3.748,2.4639-.54,0-1.0889-.1084-1.6162-.3359-25.1772-10.8779-45.4409-30.7207-57.0591-55.873-11.9512-25.8735-13.4771-55.0894-4.2964-82.2656.7212-2.1343,3.0381-3.2812,5.1719-2.5596,2.1348.7212,3.2808,3.0366,2.5596,5.1719-17.1035,50.6304,7.8726,106.8701,56.8604,128.0342,2.0688.8936,3.0215,3.2959,2.1279,5.3643ZM969.8379,1011.2363c-11.2124,24.9297-30.9663,44.8281-55.623,56.0283-.5469.249-1.1206.3662-1.6851.3662-1.5513,0-3.0342-.8887-3.7178-2.3936-.9321-2.0518-.0244-4.4707,2.0278-5.4023,48.5742-22.0654,72.2231-76.8398,55.0088-127.4097-.7261-2.1333.4146-4.4517,2.5479-5.1777,2.1328-.7285,4.4517.4141,5.1777,2.5479,9.1377,26.8433,7.8105,55.7661-3.7363,81.4409Z"/><path class="cls-1" d="M1000,0C447.7153,0,0,447.7152,0,1000s447.7153,1000,1000,1000,1000-447.7153,1000-1000S1552.2847,0,1000,0ZM1591.2507,474.0562c-2.0388,31.5479-29.48,55.4874-61.0938,55.4874h-526.1993s194.5831,570.1671,194.5831,570.1671h234.9219c16.3805,0,31.3035,6.6453,42.0297,17.4297,11.7922,11.7285,18.636,28.4756,17.2533,46.6591-2.3796,31.2968-29.7791,54.8295-61.1661,54.8295h-192.4664l91.7537,268.9653c2.8562,8.3359,4.1969,16.7302,4.1969,24.9493,0,40.8636-33.0521,76.8309-77.0052,76.8309-32.9358,0-62.1989-20.9858-72.8083-52.1726l-98.6223-290.3943c-5.7214-16.8469-21.5374-28.1787-39.3293-28.1787h-358.1766c-17.9217,0-33.8224,11.495-39.4413,28.5131l-96.1548,291.226c-5.0135,15.2144-14.69,27.9807-27.0482,36.8994-12.3582,8.9773-27.4563,14.1072-43.4869,14.1072-50.89,0-86.7405-50.0157-70.36-98.166l343.6974-1011.564c13.9905-41.2714,52.7554-69.019,96.3006-69.019h679.2917c16.4387,0,31.2451,6.6455,42.0295,17.4296,11.646,11.646,18.4656,27.9833,17.301,46.0011Z"/></svg>